<mxfile host="Electron" agent="Mozilla/5.0 (Windows NT 10.0; Win64; x64) AppleWebKit/537.36 (KHTML, like Gecko) draw.io/28.1.2 Chrome/138.0.7204.243 Electron/37.4.0 Safari/537.36" version="28.1.2">
  <diagram name="Page-1" id="qNwXvt0CLY6lyO2AQzcC">
    <mxGraphModel dx="1209" dy="868" grid="1" gridSize="10" guides="1" tooltips="1" connect="1" arrows="1" fold="1" page="1" pageScale="1" pageWidth="1920" pageHeight="1200" background="none" math="0" shadow="0" adaptiveColors="none">
      <root>
        <mxCell id="0" />
        <mxCell id="1" parent="0" />
        <mxCell id="cd0QTupqzCzwmWEgmHv6-1" value="" style="rounded=0;whiteSpace=wrap;html=1;fillColor=none;dashed=1;strokeColor=light-dark(#000000,#000000);" parent="1" vertex="1">
          <mxGeometry x="40" y="170" width="200" height="470" as="geometry" />
        </mxCell>
        <mxCell id="cd0QTupqzCzwmWEgmHv6-5" value="&lt;font style=&quot;font-size: 24px;&quot;&gt;SOURCES&lt;/font&gt;" style="rounded=1;whiteSpace=wrap;html=1;strokeColor=none;fillColor=none;dashed=1;" parent="1" vertex="1">
          <mxGeometry x="78.41" y="140" width="120" height="60" as="geometry" />
        </mxCell>
        <mxCell id="cd0QTupqzCzwmWEgmHv6-6" value="&lt;b&gt;&lt;font style=&quot;font-size: 30px;&quot;&gt;Data Flow Diagram&lt;/font&gt;&lt;font style=&quot;font-size: 24px;&quot;&gt; (&lt;/font&gt;&lt;font style=&quot;font-size: 16px;&quot;&gt;DATA LINEAGE&lt;/font&gt;&lt;font style=&quot;font-size: 24px;&quot;&gt;)&lt;/font&gt;&lt;/b&gt;" style="text;html=1;align=center;verticalAlign=middle;whiteSpace=wrap;rounded=0;" parent="1" vertex="1">
          <mxGeometry x="17.96" y="10" width="442.04" height="30" as="geometry" />
        </mxCell>
        <mxCell id="cd0QTupqzCzwmWEgmHv6-20" value="" style="edgeStyle=orthogonalEdgeStyle;rounded=0;orthogonalLoop=1;jettySize=auto;html=1;" parent="1" source="cd0QTupqzCzwmWEgmHv6-7" target="cd0QTupqzCzwmWEgmHv6-15" edge="1">
          <mxGeometry relative="1" as="geometry" />
        </mxCell>
        <mxCell id="cd0QTupqzCzwmWEgmHv6-22" style="edgeStyle=orthogonalEdgeStyle;rounded=0;orthogonalLoop=1;jettySize=auto;html=1;" parent="1" source="cd0QTupqzCzwmWEgmHv6-7" target="cd0QTupqzCzwmWEgmHv6-14" edge="1">
          <mxGeometry relative="1" as="geometry">
            <Array as="points">
              <mxPoint x="260" y="350" />
              <mxPoint x="260" y="300" />
            </Array>
          </mxGeometry>
        </mxCell>
        <mxCell id="cd0QTupqzCzwmWEgmHv6-7" value="&lt;b&gt;&lt;font style=&quot;font-size: 24px;&quot;&gt;CRM&lt;/font&gt;&lt;/b&gt;" style="image;aspect=fixed;html=1;points=[];align=center;fontSize=12;image=img/lib/azure2/general/Folder_Blank.svg;fillColor=none;dashed=1;" parent="1" vertex="1">
          <mxGeometry x="111" y="320" width="73.93" height="60" as="geometry" />
        </mxCell>
        <mxCell id="cd0QTupqzCzwmWEgmHv6-32" style="edgeStyle=orthogonalEdgeStyle;rounded=0;orthogonalLoop=1;jettySize=auto;html=1;entryX=0;entryY=0.5;entryDx=0;entryDy=0;" parent="1" source="cd0QTupqzCzwmWEgmHv6-8" target="cd0QTupqzCzwmWEgmHv6-27" edge="1">
          <mxGeometry relative="1" as="geometry" />
        </mxCell>
        <mxCell id="cd0QTupqzCzwmWEgmHv6-33" style="edgeStyle=orthogonalEdgeStyle;rounded=0;orthogonalLoop=1;jettySize=auto;html=1;entryX=0;entryY=0.5;entryDx=0;entryDy=0;" parent="1" source="cd0QTupqzCzwmWEgmHv6-8" target="cd0QTupqzCzwmWEgmHv6-26" edge="1">
          <mxGeometry relative="1" as="geometry">
            <Array as="points">
              <mxPoint x="260" y="548" />
              <mxPoint x="260" y="490" />
            </Array>
          </mxGeometry>
        </mxCell>
        <mxCell id="cd0QTupqzCzwmWEgmHv6-34" style="edgeStyle=orthogonalEdgeStyle;rounded=0;orthogonalLoop=1;jettySize=auto;html=1;entryX=0;entryY=0.5;entryDx=0;entryDy=0;" parent="1" source="cd0QTupqzCzwmWEgmHv6-8" target="cd0QTupqzCzwmWEgmHv6-28" edge="1">
          <mxGeometry relative="1" as="geometry">
            <Array as="points">
              <mxPoint x="260" y="548" />
              <mxPoint x="260" y="605" />
            </Array>
          </mxGeometry>
        </mxCell>
        <mxCell id="cd0QTupqzCzwmWEgmHv6-8" value="&lt;span style=&quot;font-size: 24px;&quot;&gt;&lt;b&gt;ERP&lt;/b&gt;&lt;/span&gt;" style="image;aspect=fixed;html=1;points=[];align=center;fontSize=12;image=img/lib/azure2/general/Folder_Blank.svg;fillColor=none;dashed=1;" parent="1" vertex="1">
          <mxGeometry x="111" y="520" width="69" height="56" as="geometry" />
        </mxCell>
        <mxCell id="cd0QTupqzCzwmWEgmHv6-21" value="" style="edgeStyle=orthogonalEdgeStyle;rounded=0;orthogonalLoop=1;jettySize=auto;html=1;" parent="1" source="cd0QTupqzCzwmWEgmHv6-9" target="cd0QTupqzCzwmWEgmHv6-16" edge="1">
          <mxGeometry relative="1" as="geometry">
            <Array as="points">
              <mxPoint x="260" y="350" />
              <mxPoint x="260" y="400" />
            </Array>
          </mxGeometry>
        </mxCell>
        <mxCell id="cd0QTupqzCzwmWEgmHv6-9" value="" style="image;aspect=fixed;html=1;points=[];align=center;fontSize=12;image=img/lib/azure2/general/File.svg;fillColor=none;dashed=1;" parent="1" vertex="1">
          <mxGeometry x="170" y="345" width="28.41" height="35" as="geometry" />
        </mxCell>
        <mxCell id="cd0QTupqzCzwmWEgmHv6-10" value="" style="image;aspect=fixed;html=1;points=[];align=center;fontSize=12;image=img/lib/azure2/general/File.svg;fillColor=none;dashed=1;" parent="1" vertex="1">
          <mxGeometry x="156.52" y="550" width="28.41" height="35" as="geometry" />
        </mxCell>
        <mxCell id="cd0QTupqzCzwmWEgmHv6-11" value="" style="rounded=1;whiteSpace=wrap;html=1;fillColor=#ffe6cc;strokeColor=#d79b00;fillStyle=hatch;" parent="1" vertex="1">
          <mxGeometry x="310" y="230" width="200" height="410" as="geometry" />
        </mxCell>
        <mxCell id="cd0QTupqzCzwmWEgmHv6-12" value="&lt;b&gt;&lt;font style=&quot;font-size: 24px;&quot;&gt;BRONZE LAYER&lt;/font&gt;&lt;/b&gt;" style="rounded=1;whiteSpace=wrap;html=1;fillColor=#fa6800;fontColor=#000000;strokeColor=#C73500;" parent="1" vertex="1">
          <mxGeometry x="310" y="180" width="200" height="40" as="geometry" />
        </mxCell>
        <mxCell id="pgNoDmGLbSQa0EVnWIcc-25" style="edgeStyle=orthogonalEdgeStyle;rounded=0;orthogonalLoop=1;jettySize=auto;html=1;entryX=0;entryY=0.5;entryDx=0;entryDy=0;" parent="1" source="cd0QTupqzCzwmWEgmHv6-14" target="pgNoDmGLbSQa0EVnWIcc-19" edge="1">
          <mxGeometry relative="1" as="geometry" />
        </mxCell>
        <mxCell id="cd0QTupqzCzwmWEgmHv6-14" value="&lt;font style=&quot;font-size: 16px;&quot;&gt;crm_sales_details&lt;/font&gt;" style="rounded=1;whiteSpace=wrap;html=1;fillColor=#fa6800;fontColor=#000000;strokeColor=#C73500;" parent="1" vertex="1">
          <mxGeometry x="315" y="280" width="190" height="40" as="geometry" />
        </mxCell>
        <mxCell id="cd0QTupqzCzwmWEgmHv6-15" value="&lt;font style=&quot;font-size: 16px;&quot;&gt;crm_cust_info&lt;/font&gt;" style="rounded=1;whiteSpace=wrap;html=1;fillColor=#fa6800;fontColor=#000000;strokeColor=#C73500;" parent="1" vertex="1">
          <mxGeometry x="315" y="330" width="190" height="40" as="geometry" />
        </mxCell>
        <mxCell id="pgNoDmGLbSQa0EVnWIcc-27" style="edgeStyle=orthogonalEdgeStyle;rounded=0;orthogonalLoop=1;jettySize=auto;html=1;entryX=0;entryY=0.5;entryDx=0;entryDy=0;" parent="1" source="cd0QTupqzCzwmWEgmHv6-16" target="pgNoDmGLbSQa0EVnWIcc-21" edge="1">
          <mxGeometry relative="1" as="geometry" />
        </mxCell>
        <mxCell id="cd0QTupqzCzwmWEgmHv6-16" value="&lt;font style=&quot;font-size: 16px;&quot;&gt;crm_prd_info&lt;/font&gt;" style="rounded=1;whiteSpace=wrap;html=1;fillColor=#fa6800;fontColor=#000000;strokeColor=#C73500;" parent="1" vertex="1">
          <mxGeometry x="315" y="380" width="190" height="40" as="geometry" />
        </mxCell>
        <mxCell id="pgNoDmGLbSQa0EVnWIcc-28" style="edgeStyle=orthogonalEdgeStyle;rounded=0;orthogonalLoop=1;jettySize=auto;html=1;entryX=0;entryY=0.5;entryDx=0;entryDy=0;" parent="1" source="cd0QTupqzCzwmWEgmHv6-26" target="pgNoDmGLbSQa0EVnWIcc-22" edge="1">
          <mxGeometry relative="1" as="geometry" />
        </mxCell>
        <mxCell id="cd0QTupqzCzwmWEgmHv6-26" value="&lt;font style=&quot;font-size: 16px;&quot;&gt;erp_cust_az12&lt;/font&gt;" style="rounded=1;whiteSpace=wrap;html=1;fillColor=#fa6800;fontColor=#000000;strokeColor=#C73500;" parent="1" vertex="1">
          <mxGeometry x="315" y="470" width="190" height="40" as="geometry" />
        </mxCell>
        <mxCell id="pgNoDmGLbSQa0EVnWIcc-29" style="edgeStyle=orthogonalEdgeStyle;rounded=0;orthogonalLoop=1;jettySize=auto;html=1;exitX=1;exitY=0.25;exitDx=0;exitDy=0;entryX=1;entryY=0.75;entryDx=0;entryDy=0;" parent="1" source="cd0QTupqzCzwmWEgmHv6-27" target="cd0QTupqzCzwmWEgmHv6-11" edge="1">
          <mxGeometry relative="1" as="geometry" />
        </mxCell>
        <mxCell id="pgNoDmGLbSQa0EVnWIcc-30" style="edgeStyle=orthogonalEdgeStyle;rounded=0;orthogonalLoop=1;jettySize=auto;html=1;exitX=1;exitY=0.5;exitDx=0;exitDy=0;entryX=0;entryY=0.5;entryDx=0;entryDy=0;" parent="1" source="cd0QTupqzCzwmWEgmHv6-27" target="pgNoDmGLbSQa0EVnWIcc-23" edge="1">
          <mxGeometry relative="1" as="geometry" />
        </mxCell>
        <mxCell id="cd0QTupqzCzwmWEgmHv6-27" value="&lt;font style=&quot;font-size: 16px;&quot;&gt;erp_loc_a101&lt;/font&gt;" style="rounded=1;whiteSpace=wrap;html=1;fillColor=#fa6800;fontColor=#000000;strokeColor=#C73500;" parent="1" vertex="1">
          <mxGeometry x="315" y="528" width="190" height="40" as="geometry" />
        </mxCell>
        <mxCell id="pgNoDmGLbSQa0EVnWIcc-31" style="edgeStyle=orthogonalEdgeStyle;rounded=0;orthogonalLoop=1;jettySize=auto;html=1;exitX=1;exitY=0.5;exitDx=0;exitDy=0;entryX=0;entryY=0.5;entryDx=0;entryDy=0;" parent="1" source="cd0QTupqzCzwmWEgmHv6-28" target="pgNoDmGLbSQa0EVnWIcc-24" edge="1">
          <mxGeometry relative="1" as="geometry" />
        </mxCell>
        <mxCell id="cd0QTupqzCzwmWEgmHv6-28" value="&lt;font style=&quot;font-size: 16px;&quot;&gt;erp_px_cat_g1v2&lt;/font&gt;" style="rounded=1;whiteSpace=wrap;html=1;fillColor=#fa6800;fontColor=#000000;strokeColor=#C73500;" parent="1" vertex="1">
          <mxGeometry x="315" y="585" width="190" height="40" as="geometry" />
        </mxCell>
        <mxCell id="pgNoDmGLbSQa0EVnWIcc-17" value="" style="rounded=1;whiteSpace=wrap;html=1;fillColor=#eeeeee;strokeColor=#36393d;fillStyle=hatch;" parent="1" vertex="1">
          <mxGeometry x="620" y="230" width="200" height="410" as="geometry" />
        </mxCell>
        <mxCell id="pgNoDmGLbSQa0EVnWIcc-18" value="&lt;b&gt;&lt;font style=&quot;font-size: 24px;&quot;&gt;SILVER LAYER&lt;/font&gt;&lt;/b&gt;" style="rounded=1;whiteSpace=wrap;html=1;fillColor=#eeeeee;strokeColor=#36393d;" parent="1" vertex="1">
          <mxGeometry x="620" y="180" width="200" height="40" as="geometry" />
        </mxCell>
        <mxCell id="pgNoDmGLbSQa0EVnWIcc-19" value="&lt;font style=&quot;font-size: 16px;&quot;&gt;crm_sales_details&lt;/font&gt;" style="rounded=1;whiteSpace=wrap;html=1;fillColor=#eeeeee;strokeColor=#36393d;" parent="1" vertex="1">
          <mxGeometry x="625" y="280" width="190" height="40" as="geometry" />
        </mxCell>
        <mxCell id="pgNoDmGLbSQa0EVnWIcc-20" value="&lt;font style=&quot;font-size: 16px;&quot;&gt;crm_cust_info&lt;/font&gt;" style="rounded=1;whiteSpace=wrap;html=1;fillColor=#eeeeee;strokeColor=#36393d;" parent="1" vertex="1">
          <mxGeometry x="625" y="330" width="190" height="40" as="geometry" />
        </mxCell>
        <mxCell id="pgNoDmGLbSQa0EVnWIcc-21" value="&lt;font style=&quot;font-size: 16px;&quot;&gt;crm_prd_info&lt;/font&gt;" style="rounded=1;whiteSpace=wrap;html=1;fillColor=#eeeeee;strokeColor=#36393d;" parent="1" vertex="1">
          <mxGeometry x="625" y="380" width="190" height="40" as="geometry" />
        </mxCell>
        <mxCell id="pgNoDmGLbSQa0EVnWIcc-22" value="&lt;font style=&quot;font-size: 16px;&quot;&gt;erp_cust_az12&lt;/font&gt;" style="rounded=1;whiteSpace=wrap;html=1;fillColor=#eeeeee;strokeColor=#36393d;" parent="1" vertex="1">
          <mxGeometry x="625" y="470" width="190" height="40" as="geometry" />
        </mxCell>
        <mxCell id="pgNoDmGLbSQa0EVnWIcc-23" value="&lt;font style=&quot;font-size: 16px;&quot;&gt;erp_loc_a101&lt;/font&gt;" style="rounded=1;whiteSpace=wrap;html=1;fillColor=#eeeeee;strokeColor=#36393d;" parent="1" vertex="1">
          <mxGeometry x="625" y="528" width="190" height="40" as="geometry" />
        </mxCell>
        <mxCell id="pgNoDmGLbSQa0EVnWIcc-24" value="&lt;font style=&quot;font-size: 16px;&quot;&gt;erp_px_cat_g1v2&lt;/font&gt;" style="rounded=1;whiteSpace=wrap;html=1;fillColor=#eeeeee;strokeColor=#36393d;" parent="1" vertex="1">
          <mxGeometry x="625" y="585" width="190" height="40" as="geometry" />
        </mxCell>
        <mxCell id="pgNoDmGLbSQa0EVnWIcc-26" style="edgeStyle=orthogonalEdgeStyle;rounded=0;orthogonalLoop=1;jettySize=auto;html=1;entryX=0.028;entryY=0.293;entryDx=0;entryDy=0;entryPerimeter=0;" parent="1" source="cd0QTupqzCzwmWEgmHv6-15" target="pgNoDmGLbSQa0EVnWIcc-17" edge="1">
          <mxGeometry relative="1" as="geometry" />
        </mxCell>
        <mxCell id="R0kkgt-QangyIfl1jAKz-1" value="" style="rounded=1;whiteSpace=wrap;html=1;fillColor=none;strokeColor=#d79b00;fillStyle=hatch;gradientColor=#ffa500;" vertex="1" parent="1">
          <mxGeometry x="870" y="230" width="200" height="410" as="geometry" />
        </mxCell>
        <mxCell id="R0kkgt-QangyIfl1jAKz-2" value="&lt;b&gt;&lt;font style=&quot;font-size: 24px;&quot;&gt;GOLD LAYER&lt;/font&gt;&lt;/b&gt;" style="rounded=1;whiteSpace=wrap;html=1;fillColor=#fff2cc;strokeColor=#d6b656;gradientColor=#ffd966;" vertex="1" parent="1">
          <mxGeometry x="870" y="180" width="200" height="40" as="geometry" />
        </mxCell>
        <mxCell id="R0kkgt-QangyIfl1jAKz-3" value="&lt;font style=&quot;font-size: 16px;&quot;&gt;fact_sale&lt;/font&gt;" style="rounded=1;whiteSpace=wrap;html=1;fillColor=#fff2cc;strokeColor=#d6b656;gradientColor=#ffd966;" vertex="1" parent="1">
          <mxGeometry x="880" y="280" width="190" height="40" as="geometry" />
        </mxCell>
        <mxCell id="R0kkgt-QangyIfl1jAKz-4" value="&lt;font style=&quot;font-size: 16px;&quot;&gt;dim_sales&lt;/font&gt;" style="rounded=1;whiteSpace=wrap;html=1;fillColor=#fff2cc;strokeColor=#d6b656;gradientColor=#ffd966;" vertex="1" parent="1">
          <mxGeometry x="875" y="430" width="190" height="40" as="geometry" />
        </mxCell>
        <mxCell id="R0kkgt-QangyIfl1jAKz-5" value="&lt;font style=&quot;font-size: 16px;&quot;&gt;dim_products&lt;/font&gt;" style="rounded=1;whiteSpace=wrap;html=1;fillColor=#fff2cc;strokeColor=#d6b656;gradientColor=#ffd966;" vertex="1" parent="1">
          <mxGeometry x="875" y="528" width="190" height="40" as="geometry" />
        </mxCell>
        <mxCell id="R0kkgt-QangyIfl1jAKz-9" value="" style="endArrow=classic;html=1;rounded=0;entryX=0;entryY=0.5;entryDx=0;entryDy=0;exitX=1;exitY=0.5;exitDx=0;exitDy=0;" edge="1" parent="1" source="pgNoDmGLbSQa0EVnWIcc-19" target="R0kkgt-QangyIfl1jAKz-3">
          <mxGeometry width="50" height="50" relative="1" as="geometry">
            <mxPoint x="815" y="310" as="sourcePoint" />
            <mxPoint x="870" y="270" as="targetPoint" />
          </mxGeometry>
        </mxCell>
        <mxCell id="R0kkgt-QangyIfl1jAKz-10" value="" style="endArrow=classic;html=1;rounded=0;exitX=1;exitY=0.5;exitDx=0;exitDy=0;entryX=0;entryY=0.5;entryDx=0;entryDy=0;jumpStyle=gap;" edge="1" parent="1" source="pgNoDmGLbSQa0EVnWIcc-20" target="R0kkgt-QangyIfl1jAKz-4">
          <mxGeometry width="50" height="50" relative="1" as="geometry">
            <mxPoint x="840" y="410" as="sourcePoint" />
            <mxPoint x="890" y="360" as="targetPoint" />
          </mxGeometry>
        </mxCell>
        <mxCell id="R0kkgt-QangyIfl1jAKz-11" value="" style="endArrow=classic;html=1;rounded=0;exitX=1;exitY=0.5;exitDx=0;exitDy=0;entryX=0;entryY=0.5;entryDx=0;entryDy=0;jumpStyle=gap;" edge="1" parent="1" source="pgNoDmGLbSQa0EVnWIcc-22" target="R0kkgt-QangyIfl1jAKz-4">
          <mxGeometry width="50" height="50" relative="1" as="geometry">
            <mxPoint x="820" y="500" as="sourcePoint" />
            <mxPoint x="870" y="450" as="targetPoint" />
          </mxGeometry>
        </mxCell>
        <mxCell id="R0kkgt-QangyIfl1jAKz-12" value="" style="endArrow=classic;html=1;rounded=0;exitX=1;exitY=0.5;exitDx=0;exitDy=0;entryX=0;entryY=0.5;entryDx=0;entryDy=0;jumpStyle=gap;" edge="1" parent="1" source="pgNoDmGLbSQa0EVnWIcc-21" target="R0kkgt-QangyIfl1jAKz-5">
          <mxGeometry width="50" height="50" relative="1" as="geometry">
            <mxPoint x="830" y="400" as="sourcePoint" />
            <mxPoint x="880" y="350" as="targetPoint" />
          </mxGeometry>
        </mxCell>
        <mxCell id="R0kkgt-QangyIfl1jAKz-13" value="" style="endArrow=classic;html=1;rounded=0;exitX=1;exitY=0.5;exitDx=0;exitDy=0;entryX=0;entryY=0.75;entryDx=0;entryDy=0;jumpStyle=gap;" edge="1" parent="1" source="pgNoDmGLbSQa0EVnWIcc-23" target="R0kkgt-QangyIfl1jAKz-4">
          <mxGeometry width="50" height="50" relative="1" as="geometry">
            <mxPoint x="830" y="550" as="sourcePoint" />
            <mxPoint x="870" y="550" as="targetPoint" />
          </mxGeometry>
        </mxCell>
        <mxCell id="R0kkgt-QangyIfl1jAKz-14" value="" style="endArrow=classic;html=1;rounded=0;entryX=0.02;entryY=0.792;entryDx=0;entryDy=0;entryPerimeter=0;exitX=1;exitY=0.5;exitDx=0;exitDy=0;jumpStyle=gap;" edge="1" parent="1" source="pgNoDmGLbSQa0EVnWIcc-24" target="R0kkgt-QangyIfl1jAKz-1">
          <mxGeometry width="50" height="50" relative="1" as="geometry">
            <mxPoint x="820" y="610" as="sourcePoint" />
            <mxPoint x="875" y="548" as="targetPoint" />
          </mxGeometry>
        </mxCell>
      </root>
    </mxGraphModel>
  </diagram>
</mxfile>
